<svg xmlns="http://www.w3.org/2000/svg" xmlns:xlink="http://www.w3.org/1999/xlink" xmlns:lucid="lucid" width="1140" height="840"><g transform="translate(-200 -100)" lucid:page-tab-id="0_0"><path d="M0 0h2318.78v1360H0z" fill="#fff"/><path d="M460 128a8 8 0 0 1 8-8h684a8 8 0 0 1 8 8v304a8 8 0 0 1-8 8H468a8 8 0 0 1-8-8z" stroke="#007cfc" stroke-width="3" fill="#007cfc" fill-opacity=".1"/><path d="M460 128a8 8 0 0 1 8-8h684a8 8 0 0 1 8 8v44a8 8 0 0 1-8 8H468a8 8 0 0 1-8-8z" stroke="#000" stroke-opacity="0" fill="#fff" fill-opacity="0"/><use xlink:href="#a" transform="matrix(1,0,0,1,465,125) translate(219.57962962962966 31.316666666666663)"/><use xlink:href="#b" transform="matrix(1,0,0,1,465,125) translate(298.34814814814814 31.316666666666663)"/><path d="M460 608a8 8 0 0 1 8-8h684a8 8 0 0 1 8 8v304a8 8 0 0 1-8 8H468a8 8 0 0 1-8-8z" stroke="#007cfc" stroke-width="3" fill="#007cfc" fill-opacity=".1"/><path d="M1209.05 593.62V728a12 12 0 0 1-12 12h-92.77" stroke="#333" stroke-width="2" fill="none"/><path d="M1210.05 592.62v1.02h-2v-1.03zM1104.3 741h-1.06l.04-1-.03-1h1.06z" stroke="#333" stroke-width=".05" fill="#333"/><path d="M1161.5 760" stroke="#333" fill="none"/><path stroke="#333" stroke-width=".05" fill="#333"/><path stroke="#333" stroke-width=".05" fill="#333"/><path d="M460 608a8 8 0 0 1 8-8h684a8 8 0 0 1 8 8v44a8 8 0 0 1-8 8H468a8 8 0 0 1-8-8z" stroke="#000" stroke-opacity="0" fill="#fff" fill-opacity="0"/><use xlink:href="#a" transform="matrix(1,0,0,1,465,605) translate(229.19722222222228 31.316666666666663)"/><use xlink:href="#c" transform="matrix(1,0,0,1,465,605) translate(307.9657407407408 31.316666666666663)"/><path d="M982.28 740h-122" stroke="#333" stroke-width="2" fill="none"/><path d="M983.28 740l.04 1h-1.06v-2h1.07zM860.3 741h-1.06l.04-1-.03-1h1.06z" stroke="#333" stroke-width=".05" fill="#333"/><path d="M738.28 740h-128.9" stroke="#333" stroke-width="2" fill="none"/><path d="M739.28 740l.04 1h-1.06v-2h1.07zM609.4 741h-1.68l.62-.88.3-.75.08-.37h.7z" stroke="#333" stroke-width=".05" fill="#333"/><path d="M982.28 255h-122" stroke="#333" stroke-width="2" fill="none"/><path d="M983.28 255l.04 1h-1.06v-2h1.07zM860.3 256h-1.06l.04-1-.03-1h1.06z" stroke="#333" stroke-width=".05" fill="#333"/><path d="M738.28 255H571.23" stroke="#333" stroke-width="2" fill="none"/><path d="M739.28 255l.04 1h-1.06v-2h1.07zM571.26 256h-1.03v-2h1.03z" stroke="#333" stroke-width=".05" fill="#333"/><path d="M1104.28 255h92.9a12 12 0 0 1 12 12v180.5" stroke="#333" stroke-width="2" fill="none"/><path d="M1104.3 256h-1.06l.04-1-.03-1h1.06zM1210.18 448.56l-2-.12v-.97h2z" stroke="#333" stroke-width=".05" fill="#333"/><path d="M318.32 440h-76.64c-.88 0-1.68-.76-1.68-1.7v-5.12c0-18.18 11.92-33.43 29.52-37.7.48-.1.88-.05 1.28.17 5.92 3.2 12.48 3.2 18.4 0 .4-.22.8-.26 1.2-.17 17.68 4.27 29.6 19.52 29.6 37.7v5.13c0 .94-.8 1.7-1.68 1.7zm-74.88-3.43h73.12v-3.4c.08-16.35-10.56-30.07-26.32-34.17-3.36 1.64-6.48 2.4-10.24 2.4s-6.88-.7-10.24-2.4c-15.76 4.1-26.4 17.82-26.32 34.18z" stroke="#fff" stroke-opacity="0" fill="#007cfc"/><path d="M280 401.3c-3.67 0-6.8-.8-10.03-2.56-9.95-5.58-13.5-18.2-7.93-28.17 5.58-9.95 18.17-13.5 28.1-7.93 6.72 3.76 10.56 10.33 10.56 18.05 0 7.76-3.93 14.36-10.74 18.04-3.22 1.73-6.32 2.56-9.95 2.56zm0-37.83c-6.6-.17-12.26 3.18-15.44 8.96-4.5 8.38-1.4 18.8 6.94 23.34 5.4 2.93 11.36 2.93 16.77 0 5.7-3.1 9-8.68 8.96-15.2-.04-9.5-7.77-17.14-17.22-17.1z" stroke="#fff" stroke-opacity="0" fill="#007cfc"/><use xlink:href="#d" transform="matrix(1,0,0,1,210,449) translate(45.092901234567904 17.955555555555552)"/><path d="M340.92 317.65v76.9a12 12 0 0 1-12 12h-18.4" stroke="#333" stroke-width="2" fill="none"/><path d="M341.92 317.68h-2v-1l2-.05zM310.54 407.54h-.12l-1.82-2h1.94z" stroke="#333" stroke-width=".05" fill="#333"/><path d="M1082 548c-23.2 0-42-12.54-42-28 0-12.37 11.37-22.8 29.02-26.63C1068 457 1138 450 1166 464c14-21 84-14 84 7 42-7 84 21 56 56 28 28 0 63-56 49-14 18.2-70 18.2-84 0-28 14-84 7-84-28z" stroke="#007cfc" stroke-width="6" fill-opacity="0"/><use xlink:href="#e" transform="matrix(1,0,0,1,1045,455) translate(51.48771604938274 54.79930555555555)"/><use xlink:href="#f" transform="matrix(1,0,0,1,1045,455) translate(103.79574074074075 54.79930555555555)"/><use xlink:href="#g" transform="matrix(1,0,0,1,1045,455) translate(192.2019135802469 54.79930555555555)"/><use xlink:href="#h" transform="matrix(1,0,0,1,1045,455) translate(64.25993827160495 81.73263888888889)"/><use xlink:href="#i" transform="matrix(1,0,0,1,1045,455) translate(137.70314814814816 81.73263888888889)"/><path d="M760 220.6" stroke="#333" fill="none"/><path d="M250 279.5c-16.57 0-30-10.3-30-23 0-10.16 8.12-18.73 20.73-21.87C240 204.75 290 199 310 210.5c10-17.25 60-11.5 60 5.75 30-5.75 60 17.25 40 46 20 23 0 51.75-40 40.25-10 14.95-50 14.95-60 0-20 11.5-60 5.75-60-23z" stroke="#007cfc" stroke-width="6" fill-opacity="0"/><use xlink:href="#j" transform="matrix(1,0,0,1,225,203.99997499970902) translate(16.259938271604945 57.70555555555555)"/><use xlink:href="#k" transform="matrix(1,0,0,1,225,203.99997499970902) translate(89.70314814814816 57.70555555555555)"/><path d="M1043.28 195c33.12 0 60 26.88 60 60 0 33.12-26.88 60-60 60-33.12 0-60-26.88-60-60 0-33.12 26.88-60 60-60zm0 114.6c30.12 0 54.6-24.48 54.6-54.6s-24.48-54.6-54.6-54.6-54.6 24.48-54.6 54.6 24.48 54.6 54.6 54.6zm26.28-66.84c.72 0 1.44.24 1.92.84.48.48.72 1.2.72 1.92v40.56c0 1.44-1.2 2.64-2.64 2.64H1017c-1.44 0-2.64-1.2-2.64-2.76V245.4c0-.72.24-1.32.72-1.92.6-.48 1.2-.72 1.92-.72h9.24v-9.36c0-4.56 1.8-9 5.04-12.24 3.24-3.36 7.44-5.16 12-5.16h.12c4.56 0 8.76 1.92 12 5.28 3.12 3.24 4.92 7.68 4.92 12.36v9.12zm-2.76 40.56v-35.16h-47.04v35.16zm-35.16-49.92v9.36h23.16v-9.12c0-3.24-1.2-6.36-3.36-8.64-2.16-2.28-5.04-3.48-8.16-3.48-3 0-6 1.2-8.16 3.48-2.16 2.16-3.36 5.28-3.48 8.4zm8.88 36.96c-3.36-1.08-5.88-4.32-5.88-8.16 0-4.8 3.84-8.76 8.64-8.76 4.8 0 8.64 3.96 8.64 8.76 0 3.84-2.4 7.08-5.88 8.16v8.4h-5.52zm2.76-11.4c-1.8 0-3.24 1.44-3.24 3.24 0 1.8 1.44 3.24 3.24 3.24 1.8 0 3.24-1.44 3.24-3.24 0-1.8-1.44-3.24-3.24-3.24zM859.28 255c0 33.12-26.88 60-60 60-33.12 0-60-26.88-60-60 0-33.12 26.88-60 60-60 33.12 0 60 26.88 60 60zm-5.4 0c0-30.12-24.48-54.6-54.6-54.6s-54.6 24.48-54.6 54.6 24.48 54.6 54.6 54.6 54.6-24.48 54.6-54.6zm-31.08 4.44c0 7.32-5.28 10.08-9.96 10.08H786.8c-5.64 0-10.68-4.32-10.92-9.48 0-.24-.12-.36-.12-.6 0-4.2 2.16-7.56 5.64-9.12.36-4.8 3.6-9.72 7.92-11.52 5.28-2.16 10.8-1.08 14.88 3 .72.72 1.44 1.56 2.04 2.52 3.36-1.32 8.16.24 9.48 5.52 4.44 1.56 7.08 5.04 7.08 9.6zm-5.52 0c0-1.08 0-3.84-4.56-4.68-1.2-.24-2.04-1.32-2.16-2.52-.12-1.8-.84-3-1.92-3-.48 0-.96.36-1.32.72-.6.84-1.56 1.2-2.64 1.08-.96-.12-1.8-.84-2.16-1.8-.48-1.44-1.32-2.64-2.16-3.6-.96-.84-2.88-2.4-5.64-2.4-.96 0-2.04.12-3.24.6-2.52 1.08-4.56 4.2-4.56 7.08v.96c.24 1.32-.72 2.64-2.04 2.88-2.4.72-3.6 2.16-3.6 4.68v.36c.12 2.28 2.76 4.32 5.52 4.32h25.68c4.8 0 4.8-3.48 4.8-4.68zm-15.24 36.36l7.2-7.2 3.84 3.84-11.88 11.88c-.48.48-1.2.84-1.92.84s-1.44-.36-1.92-.84l-11.88-11.88 3.84-3.84 7.2 7.2v-21.72h5.52zm-12.72-74.4l-3.84-3.84 11.88-11.88c1.08-1.08 2.76-1.08 3.84 0l11.88 11.88-3.84 3.84-7.2-7.2v19.68h-5.52V214.2zm59.28 31.68c.48.48.84 1.2.84 1.92s-.36 1.44-.84 1.92l-11.88 11.88-3.84-3.84 7.2-7.2h-13.56v-5.52h13.56l-7.2-7.2 3.84-3.84zm-82.92-8.04l-7.2 7.2h13.56v5.52h-13.56l7.2 7.2-3.84 3.84-11.88-11.88c-.48-.48-.84-1.2-.84-1.92s.36-1.44.84-1.92l11.88-11.88z" stroke="#000" stroke-opacity="0" fill="#007cfc"/><path d="M694.28 323a8 8 0 0 1 8-8h194a8 8 0 0 1 8 8v44a8 8 0 0 1-8 8h-194a8 8 0 0 1-8-8z" stroke="#000" stroke-opacity="0" fill="#fff" fill-opacity="0"/><use xlink:href="#l" transform="matrix(1,0,0,1,699.2843946968051,320) translate(65.17993827160495 21.080555555555552)"/><use xlink:href="#m" transform="matrix(1,0,0,1,699.2843946968051,320) translate(9.125 44.45833333333333)"/><use xlink:href="#n" transform="matrix(1,0,0,1,699.2843946968051,320) translate(80.87500000000001 44.45833333333333)"/><path d="M938.28 322a8 8 0 0 1 8-8h194a8 8 0 0 1 8 8v89.73a8 8 0 0 1-8 8h-194a8 8 0 0 1-8-8z" stroke="#000" stroke-opacity="0" fill="#fff" fill-opacity="0"/><use xlink:href="#o" transform="matrix(1,0,0,1,943.2843946968051,319) translate(42.11203703703704 20.955555555555552)"/><use xlink:href="#p" transform="matrix(1,0,0,1,943.2843946968051,319) translate(19.07499999999999 44.33333333333333)"/><use xlink:href="#q" transform="matrix(1,0,0,1,943.2843946968051,319) translate(77.975 44.33333333333333)"/><use xlink:href="#r" transform="matrix(1,0,0,1,943.2843946968051,319) translate(105.925 44.33333333333333)"/><use xlink:href="#s" transform="matrix(1,0,0,1,943.2843946968051,319) translate(6.699999999999989 65.93333333333334)"/><use xlink:href="#q" transform="matrix(1,0,0,1,943.2843946968051,319) translate(100.35 65.93333333333334)"/><use xlink:href="#t" transform="matrix(1,0,0,1,943.2843946968051,319) translate(128.3 65.93333333333334)"/><use xlink:href="#u" transform="matrix(1,0,0,1,943.2843946968051,319) translate(22.549999999999997 90.19999999999999)"/><use xlink:href="#q" transform="matrix(1,0,0,1,943.2843946968051,319) translate(64.5 90.19999999999999)"/><use xlink:href="#v" transform="matrix(1,0,0,1,943.2843946968051,319) translate(92.45 90.19999999999999)"/><path d="M564.43 191.33h-46.8c-3.22 0-5.9 2.64-5.9 5.88v114.13h32.2V299.7h-23.4v-5.9h23.4v-5.87h-23.4v-5.88h23.4v-20.4H570.22V197.2c0-3.23-2.6-5.87-5.8-5.87zm-3 23.4h-40.9v-5.88h40.9v5.88z" stroke="#000" stroke-opacity="0" fill="#007cfc"/><path d="M547.97 265.97v45.36h67.3v-45.36h-67.3zm64.1 41.88h-61.4v-32.28h61.5v32.28h-.1z" stroke="#000" stroke-opacity="0" fill="#007cfc"/><path d="M576.96 281.45h-20.5v20.52h20.5v-20.52zM606.27 299.1h-21.95v2.87h21.95v-2.88zM606.27 293.2h-21.95v2.9h21.95v-2.9zM606.27 287.33h-21.95v2.88h21.95v-2.87zM606.27 281.45h-21.95v3h21.95v-3z" stroke="#000" stroke-opacity="0" fill="#007cfc"/><g><use xlink:href="#w" transform="matrix(1,0,0,1,481.71560530319493,320.33333333333326) translate(21.64938271604943 17.955555555555545)"/><use xlink:href="#x" transform="matrix(1,0,0,1,481.71560530319493,320.33333333333326) translate(1.0749999999999886 41.333333333333314)"/><use xlink:href="#q" transform="matrix(1,0,0,1,481.71560530319493,320.33333333333326) translate(59.974999999999994 41.333333333333314)"/><use xlink:href="#y" transform="matrix(1,0,0,1,481.71560530319493,320.33333333333326) translate(87.925 41.333333333333314)"/><use xlink:href="#u" transform="matrix(1,0,0,1,481.71560530319493,320.33333333333326) translate(4.549999999999997 62.933333333333316)"/><use xlink:href="#q" transform="matrix(1,0,0,1,481.71560530319493,320.33333333333326) translate(46.5 62.933333333333316)"/><use xlink:href="#z" transform="matrix(1,0,0,1,481.71560530319493,320.33333333333326) translate(74.45 62.933333333333316)"/></g><path d="M1043.28 680c33.12 0 60 26.88 60 60 0 33.12-26.88 60-60 60-33.12 0-60-26.88-60-60 0-33.12 26.88-60 60-60zm0 114.6c30.12 0 54.6-24.48 54.6-54.6s-24.48-54.6-54.6-54.6-54.6 24.48-54.6 54.6 24.48 54.6 54.6 54.6zm26.28-66.84c.72 0 1.44.24 1.92.84.48.48.72 1.2.72 1.92v40.56c0 1.44-1.2 2.64-2.64 2.64H1017c-1.44 0-2.64-1.2-2.64-2.76V730.4c0-.72.24-1.32.72-1.92.6-.48 1.2-.72 1.92-.72h9.24v-9.36c0-4.56 1.8-9 5.04-12.24 3.24-3.36 7.44-5.16 12-5.16h.12c4.56 0 8.76 1.92 12 5.28 3.12 3.24 4.92 7.68 4.92 12.36v9.12zm-2.76 40.56v-35.16h-47.04v35.16zm-35.16-49.92v9.36h23.16v-9.12c0-3.24-1.2-6.36-3.36-8.64-2.16-2.28-5.04-3.48-8.16-3.48-3 0-6 1.2-8.16 3.48-2.16 2.16-3.36 5.28-3.48 8.4zm8.88 36.96c-3.36-1.08-5.88-4.32-5.88-8.16 0-4.8 3.84-8.76 8.64-8.76 4.8 0 8.64 3.96 8.64 8.76 0 3.84-2.4 7.08-5.88 8.16v8.4h-5.52zm2.76-11.4c-1.8 0-3.24 1.44-3.24 3.24 0 1.8 1.44 3.24 3.24 3.24 1.8 0 3.24-1.44 3.24-3.24 0-1.8-1.44-3.24-3.24-3.24zM859.28 740c0 33.12-26.88 60-60 60-33.12 0-60-26.88-60-60 0-33.12 26.88-60 60-60 33.12 0 60 26.88 60 60zm-5.4 0c0-30.12-24.48-54.6-54.6-54.6s-54.6 24.48-54.6 54.6 24.48 54.6 54.6 54.6 54.6-24.48 54.6-54.6zm-31.08 4.44c0 7.32-5.28 10.08-9.96 10.08H786.8c-5.64 0-10.68-4.32-10.92-9.48 0-.24-.12-.36-.12-.6 0-4.2 2.16-7.56 5.64-9.12.36-4.8 3.6-9.72 7.92-11.52 5.28-2.16 10.8-1.08 14.88 3 .72.72 1.44 1.56 2.04 2.52 3.36-1.32 8.16.24 9.48 5.52 4.44 1.56 7.08 5.04 7.08 9.6zm-5.52 0c0-1.08 0-3.84-4.56-4.68-1.2-.24-2.04-1.32-2.16-2.52-.12-1.8-.84-3-1.92-3-.48 0-.96.36-1.32.72-.6.84-1.56 1.2-2.64 1.08-.96-.12-1.8-.84-2.16-1.8-.48-1.44-1.32-2.64-2.16-3.6-.96-.84-2.88-2.4-5.64-2.4-.96 0-2.04.12-3.24.6-2.52 1.08-4.56 4.2-4.56 7.08v.96c.24 1.32-.72 2.64-2.04 2.88-2.4.72-3.6 2.16-3.6 4.68v.36c.12 2.28 2.76 4.32 5.52 4.32h25.68c4.8 0 4.8-3.48 4.8-4.68zm-15.24 36.36l7.2-7.2 3.84 3.84-11.88 11.88c-.48.48-1.2.84-1.92.84s-1.44-.36-1.92-.84l-11.88-11.88 3.84-3.84 7.2 7.2v-21.72h5.52zm-12.72-74.4l-3.84-3.84 11.88-11.88c1.08-1.08 2.76-1.08 3.84 0l11.88 11.88-3.84 3.84-7.2-7.2v19.68h-5.52V699.2zm59.28 31.68c.48.48.84 1.2.84 1.92s-.36 1.44-.84 1.92l-11.88 11.88-3.84-3.84 7.2-7.2h-13.56v-5.52h13.56l-7.2-7.2 3.84-3.84zm-82.92-8.04l-7.2 7.2h13.56v5.52h-13.56l7.2 7.2-3.84 3.84-11.88-11.88c-.48-.48-.84-1.2-.84-1.92s.36-1.44.84-1.92l11.88-11.88z" stroke="#000" stroke-opacity="0" fill="#007cfc"/><path d="M938.28 808a8 8 0 0 1 8-8h194a8 8 0 0 1 8 8v89.73a8 8 0 0 1-8 8h-194a8 8 0 0 1-8-8z" stroke="#000" stroke-opacity="0" fill="#fff" fill-opacity="0"/><g><use xlink:href="#A" transform="matrix(1,0,0,1,943.2843946968051,805) translate(42.11203703703704 20.955555555555552)"/><use xlink:href="#p" transform="matrix(1,0,0,1,943.2843946968051,805) translate(19.07499999999999 44.33333333333333)"/><use xlink:href="#q" transform="matrix(1,0,0,1,943.2843946968051,805) translate(77.975 44.33333333333333)"/><use xlink:href="#B" transform="matrix(1,0,0,1,943.2843946968051,805) translate(105.925 44.33333333333333)"/><use xlink:href="#s" transform="matrix(1,0,0,1,943.2843946968051,805) translate(6.699999999999989 65.93333333333334)"/><use xlink:href="#q" transform="matrix(1,0,0,1,943.2843946968051,805) translate(100.35 65.93333333333334)"/><use xlink:href="#C" transform="matrix(1,0,0,1,943.2843946968051,805) translate(128.3 65.93333333333334)"/><use xlink:href="#u" transform="matrix(1,0,0,1,943.2843946968051,805) translate(22.549999999999997 90.19999999999999)"/><use xlink:href="#q" transform="matrix(1,0,0,1,943.2843946968051,805) translate(64.5 90.19999999999999)"/><use xlink:href="#D" transform="matrix(1,0,0,1,943.2843946968051,805) translate(92.45 90.19999999999999)"/></g><path d="M694.28 808a8 8 0 0 1 8-8h194a8 8 0 0 1 8 8v44a8 8 0 0 1-8 8h-194a8 8 0 0 1-8-8z" stroke="#000" stroke-opacity="0" fill="#fff" fill-opacity="0"/><g><use xlink:href="#E" transform="matrix(1,0,0,1,699.2843946968051,805) translate(65.17993827160495 21.080555555555552)"/><use xlink:href="#m" transform="matrix(1,0,0,1,699.2843946968051,805) translate(9.125 44.45833333333333)"/><use xlink:href="#F" transform="matrix(1,0,0,1,699.2843946968051,805) translate(80.87500000000001 44.45833333333333)"/></g><path d="M585.42 750.46c-9.06 0-18.4-1.8-23.37-5.52v47.04c0 5.76 10.5 10.44 23.37 10.44 12.86 0 23.36-4.68 23.36-10.44v-47.04c-4.98 3.48-14.3 5.52-23.36 5.52z" stroke="#000" stroke-opacity="0" fill="#007cfc"/><path d="M608.78 738.46c0-4.68-10.5-8.4-23.36-8.4s-23.37 3.72-23.37 8.4 10.5 8.52 23.37 8.52c12.86 0 23.36-3.84 23.36-8.52z" stroke="#000" stroke-opacity="0" fill="#007cfc"/><path d="M556.16 773.26V738.46c0-7.92 9.33-12.24 20.47-13.68V688.3c0-3.24-2.62-5.88-5.88-5.88H524c-3.16 0-5.78 2.64-5.78 5.88v113.88h44.37c-4.08-3-6.44-6.48-6.44-10.56v-1.08H527v-5.88h29.16v-5.88H527v-5.76h29.16v.24zM527 700.3h40.85v5.76H527v-5.76z" stroke="#000" stroke-opacity="0" fill="#007cfc"/><path d="M468.22 810.42a8 8 0 0 1 8-8h174.56a8 8 0 0 1 8 8v64.14a8 8 0 0 1-8 8H476.22a8 8 0 0 1-8-8z" stroke="#000" stroke-opacity="0" fill="#fff" fill-opacity="0"/><g><use xlink:href="#G" transform="matrix(1,0,0,1,473.2162426614482,807.4227746611998) translate(35.72932098765436 20.174305555555545)"/><use xlink:href="#x" transform="matrix(1,0,0,1,473.2162426614482,807.4227746611998) translate(27.074999999999996 43.552083333333314)"/><use xlink:href="#q" transform="matrix(1,0,0,1,473.2162426614482,807.4227746611998) translate(85.975 43.552083333333314)"/><use xlink:href="#H" transform="matrix(1,0,0,1,473.2162426614482,807.4227746611998) translate(113.92500000000001 43.552083333333314)"/><use xlink:href="#u" transform="matrix(1,0,0,1,473.2162426614482,807.4227746611998) translate(13.049999999999997 65.15208333333332)"/><use xlink:href="#q" transform="matrix(1,0,0,1,473.2162426614482,807.4227746611998) translate(55 65.15208333333332)"/><use xlink:href="#I" transform="matrix(1,0,0,1,473.2162426614482,807.4227746611998) translate(82.95 65.15208333333332)"/></g><path d="M417.8 256.24h46.44v.02H510.73" stroke="#333" stroke-width="2" fill="none"/><path d="M417.82 257.24h-1.5l.37-.72.47-1.28h.65zM511.72 257.27h-1.03v-2h1.02z" stroke="#333" stroke-width=".05" fill="#333"/><defs><path fill="#333" d="M147 0H94L2-248h55l64 206c17-72 42-137 63-206h54" id="J"/><path fill="#333" d="M85 4C-2 5 27-109 22-190h50c7 57-23 150 33 157 60-5 35-97 40-157h50l1 190h-47c-2-12 1-28-3-38-12 25-28 42-61 42" id="K"/><path fill="#333" d="M25 0v-261h50V0H25" id="L"/><path fill="#333" d="M115-3C79 11 28 4 28-45v-112H4v-33h27l15-45h31v45h36v33H77v99c-1 23 16 31 38 25v30" id="M"/><path fill="#333" d="M135-150c-39-12-60 13-60 57V0H25l-1-190h47c2 13-1 29 3 40 6-28 27-53 61-41v41" id="N"/><g id="a"><use transform="matrix(0.08703703703703701,0,0,0.08703703703703701,0,0)" xlink:href="#J"/><use transform="matrix(0.08703703703703701,0,0,0.08703703703703701,19.757407407407403,0)" xlink:href="#K"/><use transform="matrix(0.08703703703703701,0,0,0.08703703703703701,38.81851851851851,0)" xlink:href="#L"/><use transform="matrix(0.08703703703703701,0,0,0.08703703703703701,47.522222222222204,0)" xlink:href="#M"/><use transform="matrix(0.08703703703703701,0,0,0.08703703703703701,57.87962962962962,0)" xlink:href="#N"/></g><path fill="#333" d="M199 0l-22-63H83L61 0H9l90-248h61L250 0h-51zm-33-102l-36-108c-10 38-24 72-36 108h72" id="O"/><path fill="#333" d="M220-157c-53 9-28 100-34 157h-49v-107c1-27-5-49-29-50C55-147 81-57 75 0H25l-1-190h47c2 12-1 28 3 38 10-53 101-56 108 0 13-22 24-43 59-42 82 1 51 116 57 194h-49v-107c-1-25-5-48-29-50" id="P"/><path fill="#333" d="M137-138c1-29-70-34-71-4 15 46 118 7 119 86 1 83-164 76-172 9l43-7c4 19 20 25 44 25 33 8 57-30 24-41C81-84 22-81 20-136c-2-80 154-74 161-7" id="Q"/><path fill="#333" d="M185-48c-13 30-37 53-82 52C43 2 14-33 14-96s30-98 90-98c62 0 83 45 84 108H66c0 31 8 55 39 56 18 0 30-7 34-22zm-45-69c5-46-57-63-70-21-2 6-4 13-4 21h74" id="R"/><path fill="#333" d="M88-194c31-1 46 15 58 34l-1-101h50l1 261h-48c-2-10 0-23-3-31C134-8 116 4 84 4 32 4 16-41 15-95c0-56 19-97 73-99zm17 164c33 0 40-30 41-66 1-37-9-64-41-64s-38 30-39 65c0 43 13 65 39 65" id="S"/><path fill="#333" d="M133-34C117-15 103 5 69 4 32 3 11-16 11-54c-1-60 55-63 116-61 1-26-3-47-28-47-18 1-26 9-28 27l-52-2c7-38 36-58 82-57s74 22 75 68l1 82c-1 14 12 18 25 15v27c-30 8-71 5-69-32zm-48 3c29 0 43-24 42-57-32 0-66-3-65 30 0 17 8 27 23 27" id="T"/><g id="b"><use transform="matrix(0.08703703703703701,0,0,0.08703703703703701,0,0)" xlink:href="#O"/><use transform="matrix(0.08703703703703701,0,0,0.08703703703703701,22.542592592592584,0)" xlink:href="#P"/><use transform="matrix(0.08703703703703701,0,0,0.08703703703703701,50.39444444444443,0)" xlink:href="#Q"/><use transform="matrix(0.08703703703703701,0,0,0.08703703703703701,67.80185185185184,0)" xlink:href="#M"/><use transform="matrix(0.08703703703703701,0,0,0.08703703703703701,78.15925925925924,0)" xlink:href="#R"/><use transform="matrix(0.08703703703703701,0,0,0.08703703703703701,95.56666666666666,0)" xlink:href="#N"/><use transform="matrix(0.08703703703703701,0,0,0.08703703703703701,107.75185185185182,0)" xlink:href="#S"/><use transform="matrix(0.08703703703703701,0,0,0.08703703703703701,126.81296296296293,0)" xlink:href="#T"/><use transform="matrix(0.08703703703703701,0,0,0.08703703703703701,144.22037037037032,0)" xlink:href="#P"/></g><path fill="#333" d="M182-130c37 4 62 22 62 59C244 23 116-4 24 0v-248c84 5 203-23 205 63 0 31-19 50-47 55zM76-148c40-3 101 13 101-30 0-44-60-28-101-31v61zm0 110c48-3 116 14 116-37 0-48-69-32-116-35v72" id="U"/><path fill="#333" d="M135-194c87-1 58 113 63 194h-50c-7-57 23-157-34-157-59 0-34 97-39 157H25l-1-190h47c2 12-1 28 3 38 12-26 28-41 61-42" id="V"/><path fill="#333" d="M195-6C206 82 75 100 31 46c-4-6-6-13-8-21l49-6c3 16 16 24 34 25 40 0 42-37 40-79-11 22-30 35-61 35-53 0-70-43-70-97 0-56 18-96 73-97 30 0 46 14 59 34l2-30h47zm-90-29c32 0 41-27 41-63 0-35-9-62-40-62-32 0-39 29-40 63 0 36 9 62 39 62" id="W"/><path fill="#333" d="M110-194c64 0 96 36 96 99 0 64-35 99-97 99-61 0-95-36-95-99 0-62 34-99 96-99zm-1 164c35 0 45-28 45-65 0-40-10-65-43-65-34 0-45 26-45 65 0 36 10 65 43 65" id="X"/><g id="c"><use transform="matrix(0.08703703703703701,0,0,0.08703703703703701,0,0)" xlink:href="#U"/><use transform="matrix(0.08703703703703701,0,0,0.08703703703703701,22.542592592592584,0)" xlink:href="#T"/><use transform="matrix(0.08703703703703701,0,0,0.08703703703703701,39.94999999999999,0)" xlink:href="#V"/><use transform="matrix(0.08703703703703701,0,0,0.08703703703703701,59.01111111111109,0)" xlink:href="#W"/><use transform="matrix(0.08703703703703701,0,0,0.08703703703703701,78.0722222222222,0)" xlink:href="#T"/><use transform="matrix(0.08703703703703701,0,0,0.08703703703703701,95.4796296296296,0)" xlink:href="#L"/><use transform="matrix(0.08703703703703701,0,0,0.08703703703703701,104.1833333333333,0)" xlink:href="#X"/><use transform="matrix(0.08703703703703701,0,0,0.08703703703703701,123.24444444444441,0)" xlink:href="#N"/><use transform="matrix(0.08703703703703701,0,0,0.08703703703703701,135.42962962962957,0)" xlink:href="#R"/></g><path d="M238-95c0 69-44 99-111 99C63 4 22-25 22-93v-155h51v151c-1 38 19 59 55 60 90 1 49-130 58-211h52v153" id="Y"/><path d="M137-138c1-29-70-34-71-4 15 46 118 7 119 86 1 83-164 76-172 9l43-7c4 19 20 25 44 25 33 8 57-30 24-41C81-84 22-81 20-136c-2-80 154-74 161-7" id="Z"/><path d="M185-48c-13 30-37 53-82 52C43 2 14-33 14-96s30-98 90-98c62 0 83 45 84 108H66c0 31 8 55 39 56 18 0 30-7 34-22zm-45-69c5-46-57-63-70-21-2 6-4 13-4 21h74" id="aa"/><path d="M135-150c-39-12-60 13-60 57V0H25l-1-190h47c2 13-1 29 3 40 6-28 27-53 61-41v41" id="ab"/><g id="d"><use transform="matrix(0.06234567901234567,0,0,0.06234567901234567,0,0)" xlink:href="#Y"/><use transform="matrix(0.06234567901234567,0,0,0.06234567901234567,16.147530864197527,0)" xlink:href="#Z"/><use transform="matrix(0.06234567901234567,0,0,0.06234567901234567,28.61666666666666,0)" xlink:href="#aa"/><use transform="matrix(0.06234567901234567,0,0,0.06234567901234567,41.08580246913579,0)" xlink:href="#ab"/></g><path d="M147 0H94L2-248h55l64 206c17-72 42-137 63-206h54" id="ac"/><path d="M24-248c93 1 206-16 204 79-1 75-69 88-152 82V0H24v-248zm52 121c47 0 100 7 100-41 0-47-54-39-100-39v80" id="ad"/><path d="M67-125c0 53 21 87 73 88 37 1 54-22 65-47l45 17C233-25 199 4 140 4 58 4 20-42 15-125 8-235 124-281 211-232c18 10 29 29 36 50l-46 12c-8-25-30-41-62-41-52 0-71 34-72 86" id="ae"/><g id="e"><use transform="matrix(0.06234567901234567,0,0,0.06234567901234567,0,0)" xlink:href="#ac"/><use transform="matrix(0.06234567901234567,0,0,0.06234567901234567,14.96296296296296,0)" xlink:href="#ad"/><use transform="matrix(0.06234567901234567,0,0,0.06234567901234567,29.92592592592592,0)" xlink:href="#ae"/></g><path d="M25-224v-37h50v37H25zM25 0v-190h50V0H25" id="af"/><path d="M135-194c87-1 58 113 63 194h-50c-7-57 23-157-34-157-59 0-34 97-39 157H25l-1-190h47c2 12-1 28 3 38 12-26 28-41 61-42" id="ag"/><path d="M195-6C206 82 75 100 31 46c-4-6-6-13-8-21l49-6c3 16 16 24 34 25 40 0 42-37 40-79-11 22-30 35-61 35-53 0-70-43-70-97 0-56 18-96 73-97 30 0 46 14 59 34l2-30h47zm-90-29c32 0 41-27 41-63 0-35-9-62-40-62-32 0-39 29-40 63 0 36 9 62 39 62" id="ah"/><g id="f"><use transform="matrix(0.06234567901234567,0,0,0.06234567901234567,0,0)" xlink:href="#ad"/><use transform="matrix(0.06234567901234567,0,0,0.06234567901234567,14.96296296296296,0)" xlink:href="#aa"/><use transform="matrix(0.06234567901234567,0,0,0.06234567901234567,27.432098765432094,0)" xlink:href="#aa"/><use transform="matrix(0.06234567901234567,0,0,0.06234567901234567,39.90123456790123,0)" xlink:href="#ab"/><use transform="matrix(0.06234567901234567,0,0,0.06234567901234567,48.62962962962962,0)" xlink:href="#af"/><use transform="matrix(0.06234567901234567,0,0,0.06234567901234567,54.86419753086419,0)" xlink:href="#ag"/><use transform="matrix(0.06234567901234567,0,0,0.06234567901234567,68.51790123456789,0)" xlink:href="#ah"/></g><path d="M110-194c64 0 96 36 96 99 0 64-35 99-97 99-61 0-95-36-95-99 0-62 34-99 96-99zm-1 164c35 0 45-28 45-65 0-40-10-65-43-65-34 0-45 26-45 65 0 36 10 65 43 65" id="ai"/><path d="M128 0H69L1-190h53L99-40l48-150h52" id="aj"/><g id="g"><use transform="matrix(0.06234567901234567,0,0,0.06234567901234567,0,0)" xlink:href="#ai"/><use transform="matrix(0.06234567901234567,0,0,0.06234567901234567,13.653703703703702,0)" xlink:href="#aj"/><use transform="matrix(0.06234567901234567,0,0,0.06234567901234567,26.122839506172834,0)" xlink:href="#aa"/><use transform="matrix(0.06234567901234567,0,0,0.06234567901234567,38.59197530864196,0)" xlink:href="#ab"/></g><path d="M85 4C-2 5 27-109 22-190h50c7 57-23 150 33 157 60-5 35-97 40-157h50l1 190h-47c-2-12 1-28-3-38-12 25-28 42-61 42" id="ak"/><path d="M135-194c52 0 70 43 70 98 0 56-19 99-73 100-30 1-46-15-58-35L72 0H24l1-261h50v104c11-23 29-37 60-37zM114-30c31 0 40-27 40-66 0-37-7-63-39-63s-41 28-41 65c0 36 8 64 40 64" id="al"/><path d="M25 0v-261h50V0H25" id="am"/><path d="M190-63c-7 42-38 67-86 67-59 0-84-38-90-98-12-110 154-137 174-36l-49 2c-2-19-15-32-35-32-30 0-35 28-38 64-6 74 65 87 74 30" id="an"/><g id="h"><use transform="matrix(0.06234567901234567,0,0,0.06234567901234567,0,0)" xlink:href="#ad"/><use transform="matrix(0.06234567901234567,0,0,0.06234567901234567,14.96296296296296,0)" xlink:href="#ak"/><use transform="matrix(0.06234567901234567,0,0,0.06234567901234567,28.61666666666666,0)" xlink:href="#al"/><use transform="matrix(0.06234567901234567,0,0,0.06234567901234567,42.27037037037036,0)" xlink:href="#am"/><use transform="matrix(0.06234567901234567,0,0,0.06234567901234567,48.50493827160493,0)" xlink:href="#af"/><use transform="matrix(0.06234567901234567,0,0,0.06234567901234567,54.7395061728395,0)" xlink:href="#an"/></g><path d="M24 0v-248h52V0H24" id="ao"/><path d="M115-3C79 11 28 4 28-45v-112H4v-33h27l15-45h31v45h36v33H77v99c-1 23 16 31 38 25v30" id="ap"/><g id="i"><use transform="matrix(0.06234567901234567,0,0,0.06234567901234567,0,0)" xlink:href="#ao"/><use transform="matrix(0.06234567901234567,0,0,0.06234567901234567,6.234567901234566,0)" xlink:href="#ag"/><use transform="matrix(0.06234567901234567,0,0,0.06234567901234567,19.888271604938268,0)" xlink:href="#ap"/><use transform="matrix(0.06234567901234567,0,0,0.06234567901234567,27.307407407407403,0)" xlink:href="#aa"/><use transform="matrix(0.06234567901234567,0,0,0.06234567901234567,39.776543209876536,0)" xlink:href="#ab"/><use transform="matrix(0.06234567901234567,0,0,0.06234567901234567,48.50493827160493,0)" xlink:href="#ag"/><use transform="matrix(0.06234567901234567,0,0,0.06234567901234567,62.158641975308626,0)" xlink:href="#aa"/><use transform="matrix(0.06234567901234567,0,0,0.06234567901234567,74.62777777777777,0)" xlink:href="#ap"/></g><g id="j"><use transform="matrix(0.06234567901234567,0,0,0.06234567901234567,0,0)" xlink:href="#ad"/><use transform="matrix(0.06234567901234567,0,0,0.06234567901234567,14.96296296296296,0)" xlink:href="#ak"/><use transform="matrix(0.06234567901234567,0,0,0.06234567901234567,28.61666666666666,0)" xlink:href="#al"/><use transform="matrix(0.06234567901234567,0,0,0.06234567901234567,42.27037037037036,0)" xlink:href="#am"/><use transform="matrix(0.06234567901234567,0,0,0.06234567901234567,48.50493827160493,0)" xlink:href="#af"/><use transform="matrix(0.06234567901234567,0,0,0.06234567901234567,54.7395061728395,0)" xlink:href="#an"/></g><g id="k"><use transform="matrix(0.06234567901234567,0,0,0.06234567901234567,0,0)" xlink:href="#ao"/><use transform="matrix(0.06234567901234567,0,0,0.06234567901234567,6.234567901234566,0)" xlink:href="#ag"/><use transform="matrix(0.06234567901234567,0,0,0.06234567901234567,19.888271604938268,0)" xlink:href="#ap"/><use transform="matrix(0.06234567901234567,0,0,0.06234567901234567,27.307407407407403,0)" xlink:href="#aa"/><use transform="matrix(0.06234567901234567,0,0,0.06234567901234567,39.776543209876536,0)" xlink:href="#ab"/><use transform="matrix(0.06234567901234567,0,0,0.06234567901234567,48.50493827160493,0)" xlink:href="#ag"/><use transform="matrix(0.06234567901234567,0,0,0.06234567901234567,62.158641975308626,0)" xlink:href="#aa"/><use transform="matrix(0.06234567901234567,0,0,0.06234567901234567,74.62777777777777,0)" xlink:href="#ap"/></g><path d="M14-72v-43h91v43H14" id="aq"/><path d="M199 0l-22-63H83L61 0H9l90-248h61L250 0h-51zm-33-102l-36-108c-10 38-24 72-36 108h72" id="ar"/><g id="l"><use transform="matrix(0.06234567901234567,0,0,0.06234567901234567,0,0)" xlink:href="#ac"/><use transform="matrix(0.06234567901234567,0,0,0.06234567901234567,14.96296296296296,0)" xlink:href="#ad"/><use transform="matrix(0.06234567901234567,0,0,0.06234567901234567,29.92592592592592,0)" xlink:href="#ae"/><use transform="matrix(0.06234567901234567,0,0,0.06234567901234567,46.073456790123444,0)" xlink:href="#aq"/><use transform="matrix(0.06234567901234567,0,0,0.06234567901234567,53.49259259259258,0)" xlink:href="#ar"/></g><path d="M169-182c-1-43-94-46-97-3 18 66 151 10 154 114 3 95-165 93-204 36-6-8-10-19-12-30l50-8c3 46 112 56 116 5-17-69-150-10-154-114-4-87 153-88 188-35 5 8 8 18 10 28" id="as"/><path d="M35-132v-50h50v50H35zM35 0v-49h50V0H35" id="at"/><g id="m"><use transform="matrix(0.05,0,0,0.05,0,0)" xlink:href="#as"/><use transform="matrix(0.05,0,0,0.05,12,0)" xlink:href="#ak"/><use transform="matrix(0.05,0,0,0.05,22.950000000000003,0)" xlink:href="#al"/><use transform="matrix(0.05,0,0,0.05,33.900000000000006,0)" xlink:href="#ag"/><use transform="matrix(0.05,0,0,0.05,44.85000000000001,0)" xlink:href="#aa"/><use transform="matrix(0.05,0,0,0.05,54.85,0)" xlink:href="#ap"/><use transform="matrix(0.05,0,0,0.05,60.80000000000001,0)" xlink:href="#at"/></g><path d="M27 0v-27h64v-190l-56 39v-29l58-41h29v221h61V0H27" id="au"/><path d="M64 0c3-98 48-159 88-221H18v-27h164v26C143-157 98-101 97 0H64" id="av"/><path d="M101-251c82-7 93 87 43 132L82-64C71-53 59-42 53-27h129V0H18c2-99 128-94 128-182 0-28-16-43-45-43s-46 15-49 41l-32-3c6-41 34-60 81-64" id="aw"/><path d="M33 0v-38h34V0H33" id="ax"/><path d="M110-160c48 1 74 30 74 79 0 53-28 85-80 85-65 0-83-55-86-122-5-90 50-162 133-122 14 7 22 21 27 39l-31 6c-5-40-67-38-82-6-9 19-15 44-15 74 11-20 30-34 60-33zm-7 138c34 0 49-23 49-58s-16-56-50-56c-29 0-50 16-49 49 1 36 15 65 50 65" id="ay"/><path d="M101-251c68 0 85 55 85 127S166 4 100 4C33 4 14-52 14-124c0-73 17-127 87-127zm-1 229c47 0 54-49 54-102s-4-102-53-102c-51 0-55 48-55 102 0 53 5 102 54 102" id="az"/><path d="M0 4l72-265h28L28 4H0" id="aA"/><path d="M155-56V0h-30v-56H8v-25l114-167h33v167h35v25h-35zm-30-156c-27 46-58 90-88 131h88v-131" id="aB"/><g id="n"><use transform="matrix(0.05,0,0,0.05,0,0)" xlink:href="#au"/><use transform="matrix(0.05,0,0,0.05,10,0)" xlink:href="#av"/><use transform="matrix(0.05,0,0,0.05,20,0)" xlink:href="#aw"/><use transform="matrix(0.05,0,0,0.05,30,0)" xlink:href="#ax"/><use transform="matrix(0.05,0,0,0.05,35,0)" xlink:href="#au"/><use transform="matrix(0.05,0,0,0.05,45,0)" xlink:href="#ay"/><use transform="matrix(0.05,0,0,0.05,55,0)" xlink:href="#ax"/><use transform="matrix(0.05,0,0,0.05,60,0)" xlink:href="#au"/><use transform="matrix(0.05,0,0,0.05,70,0)" xlink:href="#ax"/><use transform="matrix(0.05,0,0,0.05,75,0)" xlink:href="#az"/><use transform="matrix(0.05,0,0,0.05,85,0)" xlink:href="#aA"/><use transform="matrix(0.05,0,0,0.05,90,0)" xlink:href="#aw"/><use transform="matrix(0.05,0,0,0.05,100,0)" xlink:href="#aB"/></g><path d="M67-125c0 54 23 88 75 88 28 0 53-7 68-21v-34h-60v-39h108v91C232-14 192 4 140 4 58 4 20-42 15-125 8-236 126-280 215-234c19 10 29 26 37 47l-47 15c-11-23-29-39-63-39-53 1-75 33-75 86" id="aC"/><path d="M133-34C117-15 103 5 69 4 32 3 11-16 11-54c-1-60 55-63 116-61 1-26-3-47-28-47-18 1-26 9-28 27l-52-2c7-38 36-58 82-57s74 22 75 68l1 82c-1 14 12 18 25 15v27c-30 8-71 5-69-32zm-48 3c29 0 43-24 42-57-32 0-66-3-65 30 0 17 8 27 23 27" id="aD"/><path d="M231 0h-52l-39-155L100 0H48L-1-190h46L77-45c9-52 24-97 36-145h53l37 145 32-145h46" id="aE"/><path d="M123 10C108 53 80 86 19 72V37c35 8 53-11 59-39L3-190h52l48 148c12-52 28-100 44-148h51" id="aF"/><g id="o"><use transform="matrix(0.06234567901234567,0,0,0.06234567901234567,0,0)" xlink:href="#aC"/><use transform="matrix(0.06234567901234567,0,0,0.06234567901234567,17.456790123456788,0)" xlink:href="#aD"/><use transform="matrix(0.06234567901234567,0,0,0.06234567901234567,29.92592592592592,0)" xlink:href="#ap"/><use transform="matrix(0.06234567901234567,0,0,0.06234567901234567,37.34506172839505,0)" xlink:href="#aa"/><use transform="matrix(0.06234567901234567,0,0,0.06234567901234567,49.814197530864185,0)" xlink:href="#aE"/><use transform="matrix(0.06234567901234567,0,0,0.06234567901234567,67.27098765432098,0)" xlink:href="#aD"/><use transform="matrix(0.06234567901234567,0,0,0.06234567901234567,79.74012345679012,0)" xlink:href="#aF"/><use transform="matrix(0.06234567901234567,0,0,0.06234567901234567,92.20925925925926,0)" xlink:href="#aq"/><use transform="matrix(0.06234567901234567,0,0,0.06234567901234567,99.62839506172838,0)" xlink:href="#ar"/></g><g id="p"><use transform="matrix(0.05,0,0,0.05,0,0)" xlink:href="#ad"/><use transform="matrix(0.05,0,0,0.05,12,0)" xlink:href="#ak"/><use transform="matrix(0.05,0,0,0.05,22.950000000000003,0)" xlink:href="#al"/><use transform="matrix(0.05,0,0,0.05,33.900000000000006,0)" xlink:href="#am"/><use transform="matrix(0.05,0,0,0.05,38.900000000000006,0)" xlink:href="#af"/><use transform="matrix(0.05,0,0,0.05,43.900000000000006,0)" xlink:href="#an"/></g><g id="q"><use transform="matrix(0.05,0,0,0.05,0,0)" xlink:href="#ao"/><use transform="matrix(0.05,0,0,0.05,5,0)" xlink:href="#ad"/><use transform="matrix(0.05,0,0,0.05,17,0)" xlink:href="#at"/></g><path d="M99-251c64 0 84 50 84 122C183-37 130 33 47-8c-14-7-20-23-25-40l30-5c6 39 69 39 84 7 9-19 16-44 16-74-10 22-31 35-62 35-49 0-73-33-73-83 0-54 28-83 82-83zm-1 141c31-1 51-18 51-49 0-36-14-67-51-67-34 0-49 23-49 58 0 34 15 58 49 58" id="aG"/><g id="r"><use transform="matrix(0.05,0,0,0.05,0,0)" xlink:href="#au"/><use transform="matrix(0.05,0,0,0.05,10,0)" xlink:href="#aG"/><use transform="matrix(0.05,0,0,0.05,20,0)" xlink:href="#aw"/><use transform="matrix(0.05,0,0,0.05,30,0)" xlink:href="#ax"/><use transform="matrix(0.05,0,0,0.05,35,0)" xlink:href="#az"/><use transform="matrix(0.05,0,0,0.05,45,0)" xlink:href="#ax"/><use transform="matrix(0.05,0,0,0.05,50,0)" xlink:href="#aw"/><use transform="matrix(0.05,0,0,0.05,60,0)" xlink:href="#ax"/><use transform="matrix(0.05,0,0,0.05,65,0)" xlink:href="#au"/></g><path d="M275 0h-61l-44-196L126 0H64L0-248h53L97-49l45-199h58l43 199 44-199h52" id="aH"/><path d="M88-194c31-1 46 15 58 34l-1-101h50l1 261h-48c-2-10 0-23-3-31C134-8 116 4 84 4 32 4 16-41 15-95c0-56 19-97 73-99zm17 164c33 0 40-30 41-66 1-37-9-64-41-64s-38 30-39 65c0 43 13 65 39 65" id="aI"/><g id="s"><use transform="matrix(0.05,0,0,0.05,0,0)" xlink:href="#aH"/><use transform="matrix(0.05,0,0,0.05,16.8,0)" xlink:href="#af"/><use transform="matrix(0.05,0,0,0.05,21.8,0)" xlink:href="#ab"/><use transform="matrix(0.05,0,0,0.05,28.8,0)" xlink:href="#aa"/><use transform="matrix(0.05,0,0,0.05,38.8,0)" xlink:href="#ah"/><use transform="matrix(0.05,0,0,0.05,49.75,0)" xlink:href="#ak"/><use transform="matrix(0.05,0,0,0.05,60.7,0)" xlink:href="#aD"/><use transform="matrix(0.05,0,0,0.05,70.7,0)" xlink:href="#ab"/><use transform="matrix(0.05,0,0,0.05,77.7,0)" xlink:href="#aI"/></g><g id="t"><use transform="matrix(0.05,0,0,0.05,0,0)" xlink:href="#au"/><use transform="matrix(0.05,0,0,0.05,10,0)" xlink:href="#az"/><use transform="matrix(0.05,0,0,0.05,20,0)" xlink:href="#ax"/><use transform="matrix(0.05,0,0,0.05,25,0)" xlink:href="#az"/><use transform="matrix(0.05,0,0,0.05,35,0)" xlink:href="#ax"/><use transform="matrix(0.05,0,0,0.05,40,0)" xlink:href="#az"/><use transform="matrix(0.05,0,0,0.05,50,0)" xlink:href="#ax"/><use transform="matrix(0.05,0,0,0.05,55,0)" xlink:href="#au"/></g><g id="u"><use transform="matrix(0.05,0,0,0.05,0,0)" xlink:href="#ac"/><use transform="matrix(0.05,0,0,0.05,12,0)" xlink:href="#ad"/><use transform="matrix(0.05,0,0,0.05,24,0)" xlink:href="#ae"/></g><path d="M126-127c33 6 58 20 58 59 0 88-139 92-164 29-3-8-5-16-6-25l32-3c6 27 21 44 54 44 32 0 52-15 52-46 0-38-36-46-79-43v-28c39 1 72-4 72-42 0-27-17-43-46-43-28 0-47 15-49 41l-32-3c6-42 35-63 81-64 48-1 79 21 79 65 0 36-21 52-52 59" id="aJ"/><g id="v"><use transform="matrix(0.05,0,0,0.05,0,0)" xlink:href="#au"/><use transform="matrix(0.05,0,0,0.05,10,0)" xlink:href="#av"/><use transform="matrix(0.05,0,0,0.05,20,0)" xlink:href="#aw"/><use transform="matrix(0.05,0,0,0.05,30,0)" xlink:href="#ax"/><use transform="matrix(0.05,0,0,0.05,35,0)" xlink:href="#au"/><use transform="matrix(0.05,0,0,0.05,45,0)" xlink:href="#ay"/><use transform="matrix(0.05,0,0,0.05,55,0)" xlink:href="#ax"/><use transform="matrix(0.05,0,0,0.05,60,0)" xlink:href="#au"/><use transform="matrix(0.05,0,0,0.05,70,0)" xlink:href="#ax"/><use transform="matrix(0.05,0,0,0.05,75,0)" xlink:href="#aJ"/></g><path d="M135-194c53 0 70 44 70 98 0 56-19 98-73 100-31 1-45-17-59-34 3 33 2 69 2 105H25l-1-265h48c2 10 0 23 3 31 11-24 29-35 60-35zM114-30c33 0 39-31 40-66 0-38-9-64-40-64-56 0-55 130 0 130" id="aK"/><g id="w"><use transform="matrix(0.06234567901234563,0,0,0.06234567901234563,0,0)" xlink:href="#ar"/><use transform="matrix(0.06234567901234563,0,0,0.06234567901234563,16.14753086419752,0)" xlink:href="#aK"/><use transform="matrix(0.06234567901234563,0,0,0.06234567901234563,29.80123456790121,0)" xlink:href="#aK"/><use transform="matrix(0.06234567901234563,0,0,0.06234567901234563,43.4549382716049,0)" xlink:href="#aq"/><use transform="matrix(0.06234567901234563,0,0,0.06234567901234563,50.87407407407403,0)" xlink:href="#as"/><use transform="matrix(0.06234567901234563,0,0,0.06234567901234563,65.83703703703698,0)" xlink:href="#aa"/><use transform="matrix(0.06234567901234563,0,0,0.06234567901234563,78.3061728395061,0)" xlink:href="#ab"/><use transform="matrix(0.06234567901234563,0,0,0.06234567901234563,87.0345679012345,0)" xlink:href="#aj"/><use transform="matrix(0.06234567901234563,0,0,0.06234567901234563,99.50370370370362,0)" xlink:href="#aa"/><use transform="matrix(0.06234567901234563,0,0,0.06234567901234563,111.97283950617275,0)" xlink:href="#ab"/></g><g id="x"><use transform="matrix(0.05,0,0,0.05,0,0)" xlink:href="#ad"/><use transform="matrix(0.05,0,0,0.05,12,0)" xlink:href="#ak"/><use transform="matrix(0.05,0,0,0.05,22.950000000000003,0)" xlink:href="#al"/><use transform="matrix(0.05,0,0,0.05,33.900000000000006,0)" xlink:href="#am"/><use transform="matrix(0.05,0,0,0.05,38.900000000000006,0)" xlink:href="#af"/><use transform="matrix(0.05,0,0,0.05,43.900000000000006,0)" xlink:href="#an"/></g><g id="y"><use transform="matrix(0.05,0,0,0.05,0,0)" xlink:href="#au"/><use transform="matrix(0.05,0,0,0.05,10,0)" xlink:href="#aG"/><use transform="matrix(0.05,0,0,0.05,20,0)" xlink:href="#aw"/><use transform="matrix(0.05,0,0,0.05,30,0)" xlink:href="#ax"/><use transform="matrix(0.05,0,0,0.05,35,0)" xlink:href="#az"/><use transform="matrix(0.05,0,0,0.05,45,0)" xlink:href="#ax"/><use transform="matrix(0.05,0,0,0.05,50,0)" xlink:href="#aw"/><use transform="matrix(0.05,0,0,0.05,60,0)" xlink:href="#ax"/><use transform="matrix(0.05,0,0,0.05,65,0)" xlink:href="#aJ"/></g><g id="z"><use transform="matrix(0.05,0,0,0.05,0,0)" xlink:href="#au"/><use transform="matrix(0.05,0,0,0.05,10,0)" xlink:href="#av"/><use transform="matrix(0.05,0,0,0.05,20,0)" xlink:href="#aw"/><use transform="matrix(0.05,0,0,0.05,30,0)" xlink:href="#ax"/><use transform="matrix(0.05,0,0,0.05,35,0)" xlink:href="#au"/><use transform="matrix(0.05,0,0,0.05,45,0)" xlink:href="#ay"/><use transform="matrix(0.05,0,0,0.05,55,0)" xlink:href="#ax"/><use transform="matrix(0.05,0,0,0.05,60,0)" xlink:href="#au"/><use transform="matrix(0.05,0,0,0.05,70,0)" xlink:href="#ax"/><use transform="matrix(0.05,0,0,0.05,75,0)" xlink:href="#aB"/></g><path d="M182-130c37 4 62 22 62 59C244 23 116-4 24 0v-248c84 5 203-23 205 63 0 31-19 50-47 55zM76-148c40-3 101 13 101-30 0-44-60-28-101-31v61zm0 110c48-3 116 14 116-37 0-48-69-32-116-35v72" id="aL"/><g id="A"><use transform="matrix(0.06234567901234567,0,0,0.06234567901234567,0,0)" xlink:href="#aC"/><use transform="matrix(0.06234567901234567,0,0,0.06234567901234567,17.456790123456788,0)" xlink:href="#aD"/><use transform="matrix(0.06234567901234567,0,0,0.06234567901234567,29.92592592592592,0)" xlink:href="#ap"/><use transform="matrix(0.06234567901234567,0,0,0.06234567901234567,37.34506172839505,0)" xlink:href="#aa"/><use transform="matrix(0.06234567901234567,0,0,0.06234567901234567,49.814197530864185,0)" xlink:href="#aE"/><use transform="matrix(0.06234567901234567,0,0,0.06234567901234567,67.27098765432098,0)" xlink:href="#aD"/><use transform="matrix(0.06234567901234567,0,0,0.06234567901234567,79.74012345679012,0)" xlink:href="#aF"/><use transform="matrix(0.06234567901234567,0,0,0.06234567901234567,92.20925925925926,0)" xlink:href="#aq"/><use transform="matrix(0.06234567901234567,0,0,0.06234567901234567,99.62839506172838,0)" xlink:href="#aL"/></g><g id="B"><use transform="matrix(0.05,0,0,0.05,0,0)" xlink:href="#au"/><use transform="matrix(0.05,0,0,0.05,10,0)" xlink:href="#aG"/><use transform="matrix(0.05,0,0,0.05,20,0)" xlink:href="#aw"/><use transform="matrix(0.05,0,0,0.05,30,0)" xlink:href="#ax"/><use transform="matrix(0.05,0,0,0.05,35,0)" xlink:href="#az"/><use transform="matrix(0.05,0,0,0.05,45,0)" xlink:href="#ax"/><use transform="matrix(0.05,0,0,0.05,50,0)" xlink:href="#aw"/><use transform="matrix(0.05,0,0,0.05,60,0)" xlink:href="#ax"/><use transform="matrix(0.05,0,0,0.05,65,0)" xlink:href="#aw"/></g><g id="C"><use transform="matrix(0.05,0,0,0.05,0,0)" xlink:href="#au"/><use transform="matrix(0.05,0,0,0.05,10,0)" xlink:href="#az"/><use transform="matrix(0.05,0,0,0.05,20,0)" xlink:href="#ax"/><use transform="matrix(0.05,0,0,0.05,25,0)" xlink:href="#az"/><use transform="matrix(0.05,0,0,0.05,35,0)" xlink:href="#ax"/><use transform="matrix(0.05,0,0,0.05,40,0)" xlink:href="#az"/><use transform="matrix(0.05,0,0,0.05,50,0)" xlink:href="#ax"/><use transform="matrix(0.05,0,0,0.05,55,0)" xlink:href="#aw"/></g><g id="D"><use transform="matrix(0.05,0,0,0.05,0,0)" xlink:href="#au"/><use transform="matrix(0.05,0,0,0.05,10,0)" xlink:href="#av"/><use transform="matrix(0.05,0,0,0.05,20,0)" xlink:href="#aw"/><use transform="matrix(0.05,0,0,0.05,30,0)" xlink:href="#ax"/><use transform="matrix(0.05,0,0,0.05,35,0)" xlink:href="#au"/><use transform="matrix(0.05,0,0,0.05,45,0)" xlink:href="#ay"/><use transform="matrix(0.05,0,0,0.05,55,0)" xlink:href="#ax"/><use transform="matrix(0.05,0,0,0.05,60,0)" xlink:href="#aw"/><use transform="matrix(0.05,0,0,0.05,70,0)" xlink:href="#ax"/><use transform="matrix(0.05,0,0,0.05,75,0)" xlink:href="#aJ"/></g><g id="E"><use transform="matrix(0.06234567901234567,0,0,0.06234567901234567,0,0)" xlink:href="#ac"/><use transform="matrix(0.06234567901234567,0,0,0.06234567901234567,14.96296296296296,0)" xlink:href="#ad"/><use transform="matrix(0.06234567901234567,0,0,0.06234567901234567,29.92592592592592,0)" xlink:href="#ae"/><use transform="matrix(0.06234567901234567,0,0,0.06234567901234567,46.073456790123444,0)" xlink:href="#aq"/><use transform="matrix(0.06234567901234567,0,0,0.06234567901234567,53.49259259259258,0)" xlink:href="#aL"/></g><g id="F"><use transform="matrix(0.05,0,0,0.05,0,0)" xlink:href="#au"/><use transform="matrix(0.05,0,0,0.05,10,0)" xlink:href="#av"/><use transform="matrix(0.05,0,0,0.05,20,0)" xlink:href="#aw"/><use transform="matrix(0.05,0,0,0.05,30,0)" xlink:href="#ax"/><use transform="matrix(0.05,0,0,0.05,35,0)" xlink:href="#au"/><use transform="matrix(0.05,0,0,0.05,45,0)" xlink:href="#ay"/><use transform="matrix(0.05,0,0,0.05,55,0)" xlink:href="#ax"/><use transform="matrix(0.05,0,0,0.05,60,0)" xlink:href="#aw"/><use transform="matrix(0.05,0,0,0.05,70,0)" xlink:href="#ax"/><use transform="matrix(0.05,0,0,0.05,75,0)" xlink:href="#az"/><use transform="matrix(0.05,0,0,0.05,85,0)" xlink:href="#aA"/><use transform="matrix(0.05,0,0,0.05,90,0)" xlink:href="#aw"/><use transform="matrix(0.05,0,0,0.05,100,0)" xlink:href="#aB"/></g><path d="M24-248c120-7 223 5 221 122C244-46 201 0 124 0H24v-248zM76-40c74 7 117-18 117-86 0-67-45-88-117-82v168" id="aM"/><g id="G"><use transform="matrix(0.06234567901234563,0,0,0.06234567901234563,0,0)" xlink:href="#aM"/><use transform="matrix(0.06234567901234563,0,0,0.06234567901234563,16.14753086419752,0)" xlink:href="#aL"/><use transform="matrix(0.06234567901234563,0,0,0.06234567901234563,32.29506172839504,0)" xlink:href="#aq"/><use transform="matrix(0.06234567901234563,0,0,0.06234567901234563,39.71419753086417,0)" xlink:href="#as"/><use transform="matrix(0.06234567901234563,0,0,0.06234567901234563,54.67716049382712,0)" xlink:href="#aa"/><use transform="matrix(0.06234567901234563,0,0,0.06234567901234563,67.14629629629624,0)" xlink:href="#ab"/><use transform="matrix(0.06234567901234563,0,0,0.06234567901234563,75.87469135802463,0)" xlink:href="#aj"/><use transform="matrix(0.06234567901234563,0,0,0.06234567901234563,88.34382716049376,0)" xlink:href="#aa"/><use transform="matrix(0.06234567901234563,0,0,0.06234567901234563,100.81296296296289,0)" xlink:href="#ab"/></g><path d="M117-194c89-4 53 116 60 194h-32v-121c0-31-8-49-39-48C34-167 62-67 57 0H25l-1-190h30c1 10-1 24 2 32 11-22 29-35 61-36" id="aN"/><path d="M100-194c62-1 85 37 85 99 1 63-27 99-86 99S16-35 15-95c0-66 28-99 85-99zM99-20c44 1 53-31 53-75 0-43-8-75-51-75s-53 32-53 75 10 74 51 75" id="aO"/><path d="M100-194c63 0 86 42 84 106H49c0 40 14 67 53 68 26 1 43-12 49-29l28 8c-11 28-37 45-77 45C44 4 14-33 15-96c1-61 26-98 85-98zm52 81c6-60-76-77-97-28-3 7-6 17-6 28h103" id="aP"/><g id="H"><use transform="matrix(0.05,0,0,0.05,0,0)" xlink:href="#aN"/><use transform="matrix(0.05,0,0,0.05,10,0)" xlink:href="#aO"/><use transform="matrix(0.05,0,0,0.05,20,0)" xlink:href="#aN"/><use transform="matrix(0.05,0,0,0.05,30,0)" xlink:href="#aP"/></g><g id="I"><use transform="matrix(0.05,0,0,0.05,0,0)" xlink:href="#au"/><use transform="matrix(0.05,0,0,0.05,10,0)" xlink:href="#av"/><use transform="matrix(0.05,0,0,0.05,20,0)" xlink:href="#aw"/><use transform="matrix(0.05,0,0,0.05,30,0)" xlink:href="#ax"/><use transform="matrix(0.05,0,0,0.05,35,0)" xlink:href="#au"/><use transform="matrix(0.05,0,0,0.05,45,0)" xlink:href="#ay"/><use transform="matrix(0.05,0,0,0.05,55,0)" xlink:href="#ax"/><use transform="matrix(0.05,0,0,0.05,60,0)" xlink:href="#aw"/><use transform="matrix(0.05,0,0,0.05,70,0)" xlink:href="#ax"/><use transform="matrix(0.05,0,0,0.05,75,0)" xlink:href="#aB"/></g></defs></g></svg>